/* XPM */
static char *result[] = {
/* columns rows colors chars-per-pixel */
"16 16 58 1 ",
"  c #030203",
". c #040304",
"X c #030404",
"o c #040404",
"O c #151616",
"+ c #371617",
"@ c #7E1E21",
"# c #402225",
"$ c #453639",
"% c #084C2C",
"& c #085730",
"* c #075931",
"= c #095D34",
"- c #086336",
"; c #04713C",
": c #05713C",
"> c #5A484B",
", c #4D575B",
"< c #49585C",
"1 c #525E64",
"2 c #5F6B71",
"3 c #646265",
"4 c #676467",
"5 c #6A6668",
"6 c #666F6F",
"7 c #6C7479",
"8 c #6F7579",
"9 c #707675",
"0 c #75797B",
"q c #767A7C",
"w c #787B7E",
"e c #7B7D7F",
"r c #7D7F7F",
"t c #8F1F22",
"y c #872022",
"u c #8B2022",
"i c #9B2024",
"p c #AD2124",
"a c #B22227",
"s c #A0542A",
"d c #A85729",
"f c #A65A2F",
"g c #906326",
"h c #BF6029",
"j c #C26028",
"k c #DD6621",
"l c #DD6721",
"z c #816162",
"x c #846564",
"c c #D48117",
"v c #D98315",
"b c #DD8316",
"n c #DC8415",
"m c #818181",
"M c #828181",
"N c gray51",
"B c #838282",
"V c None",
/* pixels */
"VVVVVVVVVVVVVVVV",
"VVVVVVVcvVVVVVVV",
"VVVV2VVnbgVVVVVV",
"VVVrN>VVVV$MmVVV",
"VVV0xVVVVVVzeVVV",
"VVVVVVVVVVVV#VVV",
"V@t+VVVVVVVVV*&V",
"VpauVoXoO .V%;:V",
"VyiVVVVVVVVVV-=V",
"VVVVVVVVVVVVVVVV",
"VVV14VVVVVV3<VVV",
"VVVNB5VVVV,69VVV",
"VVV7wVVsdVVq8VVV",
"VVVVVVVklfVVVVVV",
"VVVVVVVhjVVVVVVV",
"VVVVVVVVVVVVVVVV"
};
