/* XPM */
static char *result[] = {
/* columns rows colors chars-per-pixel */
"64 64 177 2 ",
"   c #030303",
".  c #070807",
"X  c #090907",
"o  c #060708",
"O  c #080708",
"+  c #060809",
"@  c #0B0B0A",
"#  c #080707",
"$  c #120B0D",
"%  c #0D130F",
"&  c #10110F",
"*  c #0D1413",
"=  c #0D191C",
"-  c #0C1B18",
";  c #131413",
":  c #191412",
">  c #151B1B",
",  c #1A1A1A",
"<  c #151817",
"1  c #23120D",
"2  c #3C160F",
"3  c #261B1C",
"4  c #331C1D",
"5  c #3C1C1E",
"6  c #0F271B",
"7  c #1A261F",
"8  c #0B1D29",
"9  c #121E22",
"0  c #0E212B",
"q  c #0C3B25",
"w  c #0D3421",
"e  c #113925",
"r  c #123826",
"t  c #0F2533",
"y  c #112B35",
"u  c #132C3B",
"i  c #102534",
"p  c #1D3C3B",
"a  c #2B2A2A",
"s  c #322B39",
"d  c #223F3E",
"f  c #333331",
"g  c #3C3D3B",
"h  c #451B1C",
"j  c #4D181E",
"k  c #5C1C1D",
"l  c #5C0A08",
"z  c #62140F",
"x  c #661C1E",
"c  c #771819",
"v  c #481B20",
"b  c #7E1E20",
"n  c #592626",
"m  c #41323A",
"M  c #622026",
"N  c #74272A",
"B  c #6B3739",
"V  c #682933",
"C  c #0D4229",
"Z  c #0C4D2C",
"A  c #09542F",
"S  c #085A32",
"D  c #085530",
"F  c #076235",
"G  c #056C3A",
"H  c #056638",
"J  c #04713C",
"K  c #5C533D",
"L  c #694B3F",
"P  c #7D4F38",
"I  c #62563B",
"U  c #7E513A",
"Y  c #0D324A",
"T  c #143444",
"R  c #14394E",
"E  c #173847",
"W  c #163D54",
"Q  c #1C3D53",
"!  c #103D5D",
"~  c #283D4B",
"^  c #5E3E46",
"/  c #483B46",
"(  c #1E4155",
")  c #294344",
"_  c #3A444C",
"`  c #3A4D4E",
"'  c #374A4D",
"]  c #254255",
"[  c #2A4253",
"{  c #2C4A5B",
"}  c #334D5D",
"|  c #394F5C",
" . c #3B525F",
".. c #375057",
"X. c #2F4D61",
"o. c #3C5564",
"O. c #375160",
"+. c #45464B",
"@. c #474943",
"#. c #574844",
"$. c #505145",
"%. c #524E57",
"&. c #475958",
"*. c #5E585A",
"=. c #654D42",
"-. c #685659",
";. c #725458",
":. c #405664",
">. c #445965",
",. c #4C5E69",
"<. c #465B68",
"1. c #4F616C",
"2. c #53636C",
"3. c #58666E",
"4. c #5A6568",
"5. c #5F6A71",
"6. c #576770",
"7. c #636D6D",
"8. c #636D73",
"9. c #6B7275",
"0. c #687377",
"q. c #7E7171",
"w. c #757A7B",
"e. c #7B7C7D",
"r. c #727779",
"t. c #88110C",
"y. c #811718",
"u. c #951E1E",
"i. c #9B1E1F",
"p. c #8C1F21",
"a. c #961F22",
"s. c #9C1F21",
"d. c #A81F23",
"f. c #B41F22",
"g. c #892724",
"h. c #922424",
"j. c #8D3634",
"k. c #8F3D3B",
"l. c #AF2024",
"z. c #B32126",
"x. c #B32228",
"c. c #AE6F1E",
"v. c #BB751E",
"b. c #9A552D",
"n. c #8B413D",
"m. c #92403F",
"M. c #835136",
"N. c #845238",
"B. c #8E5435",
"V. c #955531",
"C. c #BB5D28",
"Z. c #8A652E",
"A. c #826130",
"S. c #966928",
"D. c #A36D24",
"F. c #AE6F20",
"G. c #AD7021",
"H. c #DF651D",
"J. c #C87A18",
"K. c #E0661E",
"L. c #C25E25",
"P. c #CA6024",
"I. c #D26222",
"U. c #DD6621",
"Y. c #E06620",
"T. c #87534F",
"R. c #854A48",
"E. c #85605F",
"W. c #836D6B",
"Q. c #846565",
"!. c #807374",
"~. c #827B7A",
"^. c #DC8315",
"/. c #7E7F80",
"(. c #7E8081",
"). c #838282",
"_. c None",
/* pixels */
"_._._._._._._._._._._._._._._._._._._._._._._._._._._._._._._._._._._._._._._._._._._._._._._._._._._._._._._._._._._._._._._._.",
"_._._._._._._._._._._._._._._._._._._._._._._._._._._._._._._._._._._._._._._._._._._._._._._._._._._._._._._._._._._._._._._._.",
"_._._._._._._._._._._._._._._._._._._._._._._._._._._._._._._._._._._._._._._._._._._._._._._._._._._._._._._._._._._._._._._._.",
"_._._._._._._._._._._._._._._._._._._._._._._._._._._._._.` A.G.v.D.I _._._._._._._._._._._._._._._._._._._._._._._._._._._._._.",
"_._._._._._._._._._._._._._._._._._._._._._._._._._._._.K ^.^.^.^.^.^.F.[ _._._._._._._._._._._._._._._._._._._._._._._._._._._.",
"_._._._._._._._._._._._._._._._._._._._._._._._._._._.@.^.^.^.^.^.^.^.^.D._._._._._._._._._._._._._._._._._._._._._._._._._._._.",
"_._._._._._._._._._._._._._._._._._._._._._._._._._._.G.^.^.^.^.^.^.^.^.^.$._._._._._._._._._._._._._._._._._._._._._._._._._._.",
"_._._._._._._._._._._._._._._._._._._._._._._._._._.] ^.^.^.^.^.^.^.^.^.^.A._._._._._._._._._._._._._._._._._._._._._._._._._._.",
"_._._._._._._._._._._._._._._._._._._._._._._._._._._ ^.^.^.^.^.^.^.^.^.^.S._._._._._._._._._._._._._._._._._._._._._._._._._._.",
"_._._._._._._._._._._._._._._._._._._._._._._._._._.Q ^.^.^.^.^.^.^.^.^.^.U _._._._._._._._._._._._._._._._._._._._._._._._._._.",
"_._._._._._._._._._._._._._.( o.2.2.:.Q _._._._._._._.c.^.^.^.^.^.^.^.^.^.$._._._._._._._.{ ,.3.1.} _._._._._._._._._._._._._._.",
"_._._._._._._._._._._._._.o.).).).).).e.[ 9 _._._._.* g ^.^.^.^.^.^.^.^.D.8 _._._._._.y 1.).(.).).).8.( _._._._._._._._._._._._.",
"_._._._._._._._._._._._.O.).).).~.).).).).E < _._.X _._.I ^.^.^.^.^.^.c.{ _.X X _._.% ,.).).).).).).).9._._._._._._._._._._._._.",
"_._._._._._._._._._._._.w.).).).).).).).).1.-.$ @ _._._._.` Z.v.J.D.=._._._._._.X : W ).).).).).).).).). ._._._._._._._._._._._.",
"_._._._._._._._._._._.{ ).).).).).).).).).;.j _.@ _._._._._._._._._._._._._._.@ _.n n ~.).).).).).).).).3._._._._._._._._._._._.",
"_._._._._._._._._._._.o.).).).).).).).~.R.g._._._.@ _._._._._._._._._._._._.@ _._._.+.u.q.).).).).).).).8._._._._._._._._._._._.",
"_._._._._._._._._._._.} ).).).).).(.).k.k.8._._._._.@ $ _._._._._._._._._.X _._._._.} W.u.q.).).).).).).2._._._._._._._._._._._.",
"_._._._._._._._._._._.R w.).).).).).n.n.).:._._._._._.% _._._._._._._._.@ _._._._._.Y w.q.u.!.).).).).).| _._._._._._._._._._._.",
"_._._._._._._._._._._._. .).).).).T.j.).0.R _._._._._._.@ _._._._._._.@ _._._._._._._.} ).!.h.e.).).).r.u _._._._._._._._._._._.",
"_._._._._._._._._._._.@ y <.).).Q.g.).8.( _._._._._._._._.@ _._._._.@ _._._._._._._._._.| e.Q.j.).).w.Q @ _._._._._._._._._._._.",
"_._._._._._._._._._._._._.= { 3.g.%.} _._._._._._._._._._._.@ _._.@ _._._._._._._._._._._.R :.N -.<.u _._.@ _._._._._._._._._._.",
"_._._._._._._._._._.@ _._.& _.M t._._._._._._._._._._._._._._.@ _.@ _._._._._._._._._._._._._._.c _.. _._.@ _._._._._._._._._._.",
"_._._._._._._._._._.@ _._._._.y._._._._._._._._._._._._._._._._.@ _._._._._._._._._._._._._._._._._.O _._._.. _._._._._._._._._.",
"_._._._._._._._._.@ _._._._.: _._._._._._._._._._._._._._._._.@ @ _._._._._._._._._._._._._._._._.l @ _._._.. _._._._._._._._._.",
"_._._._._._._._._.* _._._._.< _._._._._._._._._._._._._._._._.@ _.& _._._._._._._._._._._._._._._.$ _._._._.$ $ _._._._._._._._.",
"_._._._._._.3 x h.a.y.h _._.$ _._._._._._._._._._._._._._._.@ _._.@ _._._._._._._._._._._._._._._.@ @ _.% q S F A w ; _._._._._.",
"_._._._._.h l.z.z.z.x.z.c > _.@ _._._._._._._._._._._._._._._._._._.@ _._._._._._._._._._._._._._.@ @ 6 H J J J J J S < _._._._.",
"_._._._.4 l.f.z.z.z.z.x.z.x _.@ _._._._._._._._._._._._._.a _._.O O @ _._._._._._._._.  . _._._.@ _.* F J J J J J J J A _._._._.",
"_._._._.b z.z.z.z.z.l.x.z.l., _.@ _._.      _._.    .     f _.      a @ _._.    _.          _._.. _.q J J J J J J J J J 6 _._._.",
"_._._.= d.z.z.z.z.z.x.l.x.x.h _.. _._.      _.      _.          _.  @.f _._.    .     _._._._._._._.D J J J J J J J J J q _._._.",
"_._._.> f.l.z.z.z.x.z.z.x.z.h _._._._.  .   _.  .   _.        _._.  @.. _._.    O         _._.. _._.S J J J J J J J J J C _._._.",
"_._._._.i.z.z.z.z.x.x.x.z.z.4 _._.. _.  _.          . _.      _._.  a X _._.    _._.        _.X _._.Z J J J J J J J J J q _._._.",
"_._._._.x z.x.z.x.x.x.z.z.i.9 _._.+ .   _.    .       _.    O _._.      _._.    _._._.      @ _._._.w J J J J J J J J G > _._._.",
"_._._._., h.z.x.z.z.z.z.f.5 _._._._..   _._.  _.    _._.    O _._.            _.          + X _._._._.A J J J J J J J e _._._._.",
"_._._._._.3 b z.z.z.x.d.5 @ _._._._.@ . _._._._._.. _._.    _._._._._.. . _._._..   . _._.. _._._._.$ ; Z J J J J G e _._._._._.",
"_._._._._._._.4 k k h 9 _._.+ _._._._.@ _._._._._._._._.@ _._._._._._.@ _._._._._._._._._.. _._._._.O _._.7 e C e , _._._._._._.",
"_._._._._._._._._._._._._._.+ @ _._._.@ _._._._._._._._.@ _._._._._._._._._._._._._._._.@ _._._._.@ ; _._._._._._._._._._._._._.",
"_._._._._._._._._._._._._._.@ _._._._._.@ _._._._._._._.@ _._._._._._._._._._._._._._._.. _._._.@ _.@ _._._._._._._._._._._._._.",
"_._._._._._._._._._._._._._.O _.@ _._._.. _._._._._._._.@ _._._._._._._._._._._._._._._._._._.@ _._.@ _._._._._._._._._._._._._.",
"_._._._._._._._._._._._._._._._._.@ _._.. _._._._._._._.@ _._._._._._._.@ _._._._._._.. _._.. _._._.@ _._._._._._._._._._._._._.",
"_._._._._._._._._._._._._._._._._._.= _._.O _._._._._._.& _._._._._._._.@ _._._._._._.. _.% 0 _._._.% _._._._._._._._._._._._._.",
"_._._._._._._._._._._._._._.T >.3.8.^ s _.O _._._._._._.@ _._._._._._._.@ _._._._._._._.] m -.0.6.} 9 _._._._._._._._._._._._._.",
"_._._._._._._._._._._._._.O.w.).).).).R.V y _._._._._._.@ _._._._._._._._._._._._._.9 s B e.).).).).E Q _._._._._._._._._._._._.",
"_._._._._._._._._._._._.X.).).).).).).).Q.N 2 _._._._._.@ _._._._._._._._._._._._._.5 -.).).).).).7.) 8._._._._._._._._._._._._.",
"_._._._._._._._._._._._.r.).).).).).).).).~.B z _._._._.@ _._._._._._._._._._._._., 4.).).).).).w.p 9.).} _._._._._._._._._._._.",
"_._._._._._._._._._._.X.).).).).).).).).).).3.: 1 _._._.@ _._._._._._.. _._._.@ @ R e.).).).).4.p 7.).).2._._._._._._._._._._._.",
"_._._._._._._._._._._.o.).).).).).).).).).).8.8 ; @ _._.@ _._._._._._.O _._.@ _._.Y ).).r.&.d ` w.).).).5._._._._._._._._._._._.",
"_._._._._._._._._._._.O.).).).).).).).).).).2._._.@ & & * _._._._._._.@ @ @ _._._.T ..d d &.e.).).).).).3._._._._._._._._._._._.",
"_._._._._._._._._._._.R w.).).).).).).).).).{ _._.@ _._.& = _.~ [ ! _.@ _._._._.@ = ..w.).).).).).).).). ._._._._._._._._._._._.",
"_._._._._._._._._._._._.:.).).).).).).).).3._._._._.X _._.$.C.H.K.I.N.] _.@ @ _._._.] e.).).).).).).).9.R _._._._._._._._._._._.",
"_._._._._._._._._._._._._.,.).).).).).).8.Q _._._._._.i N.U.U.U.K.U.U.P.~ _._._._._._.} /.).).).).).9.] _._._._._._._._._._._._.",
"_._._._._._._._._._._._._._.X.6.8.9.3.} _._._._._._._.=.Y.U.U.U.H.U.U.U.L._._._._._._._.Q <.5.9.5.o._._._._._._._._._._._._._._.",
"_._._._._._._._._._._._._._._._._._._._._._._._._._._.L.U.U.U.U.U.U.U.U.U.#._._._._._._._._._._._._._._._._._._._._._._._._._._.",
"_._._._._._._._._._._._._._._._._._._._._._._._._._.] H.U.U.U.U.U.U.U.U.U.M._._._._._._._._._._._._._._._._._._._._._._._._._._.",
"_._._._._._._._._._._._._._._._._._._._._._._._._._.+.H.U.U.U.U.U.U.U.U.U.V._._._._._._._._._._._._._._._._._._._._._._._._._._.",
"_._._._._._._._._._._._._._._._._._._._._._._._._._.W U.U.U.U.U.U.U.U.U.U.P _._._._._._._._._._._._._._._._._._._._._._._._._._.",
"_._._._._._._._._._._._._._._._._._._._._._._._._._._.b.U.U.U.Y.U.U.U.U.H.+._._._._._._._._._._._._._._._._._._._._._._._._._._.",
"_._._._._._._._._._._._._._._._._._._._._._._._._._._._ I.U.U.U.U.U.U.U.M._._._._._._._._._._._._._._._._._._._._._._._._._._._.",
"_._._._._._._._._._._._._._._._._._._._._._._._._._._._.+.L.K.U.U.U.U.N._._._._._._._._._._._._._._._._._._._._._._._._._._._._.",
"_._._._._._._._._._._._._._._._._._._._._._._._._._._._._._.=.B.b.N._ _._._._._._._._._._._._._._._._._._._._._._._._._._._._._.",
"_._._._._._._._._._._._._._._._._._._._._._._._._._._._._._._._._._._._._._._._._._._._._._._._._._._._._._._._._._._._._._._._.",
"_._._._._._._._._._._._._._._._._._._._._._._._._._._._._._._._._._._._._._._._._._._._._._._._._._._._._._._._._._._._._._._._.",
"_._._._._._._._._._._._._._._._._._._._._._._._._._._._._._._._._._._._._._._._._._._._._._._._._._._._._._._._._._._._._._._._.",
"_._._._._._._._._._._._._._._._._._._._._._._._._._._._._._._._._._._._._._._._._._._._._._._._._._._._._._._._._._._._._._._._."
};
