/* XPM */
static char *result[] = {
/* columns rows colors chars-per-pixel */
"32 32 204 2 ",
"   c #020101",
".  c #020201",
"X  c #020102",
"o  c #010202",
"O  c #020202",
"+  c #030202",
"@  c #020302",
"#  c #030302",
"$  c #030203",
"%  c #020303",
"&  c gray1",
"*  c #040303",
"=  c #040403",
"-  c #040304",
";  c #040404",
":  c #050405",
">  c gray2",
",  c #060605",
"<  c #070706",
"1  c #090A09",
"2  c #0A0A09",
"3  c #0A0B0A",
"4  c #0C0D0D",
"5  c #0E0E0D",
"6  c #100D0C",
"7  c #0D100E",
"8  c #0E171D",
"9  c #131312",
"0  c #131A1F",
"q  c #201515",
"w  c #0A2E1C",
"e  c #0A3D24",
"r  c #0D3D25",
"t  c #103C26",
"y  c #222221",
"u  c #26282B",
"i  c #2E2929",
"p  c #2C2C2C",
"a  c #2A2D37",
"s  c #342A34",
"d  c #3C2E33",
"f  c #393433",
"g  c #4B1613",
"h  c #5E1B1B",
"j  c #591C1D",
"k  c #611C1F",
"l  c #6A1C1E",
"z  c #711E21",
"x  c #791D20",
"c  c #7B1E21",
"v  c #4E3437",
"b  c #6F3233",
"n  c #60393E",
"m  c #0F4B2D",
"M  c #0C4C2D",
"N  c #08522F",
"B  c #0B5330",
"V  c #075D32",
"C  c #0A5832",
"Z  c #076335",
"A  c #076236",
"S  c #046F3C",
"D  c #04703C",
"F  c #04713C",
"G  c #05713C",
"H  c #54452D",
"J  c #7D5928",
"K  c #60473B",
"L  c #714D3C",
"P  c #7F6132",
"I  c #263944",
"U  c #523E47",
"Y  c #6E3F42",
"T  c #344C52",
"R  c #3E4D54",
"E  c #3E5460",
"W  c #3E5461",
"Q  c #3D5463",
"!  c #484B55",
"~  c #475057",
"^  c #445657",
"/  c #4A5B5A",
"(  c #614349",
")  c #415561",
"_  c #465760",
"`  c #415765",
"'  c #435A65",
"]  c #4A5B66",
"[  c #4A5C67",
"{  c #4D5C65",
"}  c #4B5D68",
"|  c #4B5E69",
" . c #4E606B",
".. c #556362",
"X. c #596565",
"o. c #576068",
"O. c #56656A",
"+. c #5C676E",
"@. c #5C6870",
"#. c #5F6A71",
"$. c #5E6A72",
"%. c #6E6367",
"&. c #7B6A6C",
"*. c #7B6E6E",
"=. c #646E73",
"-. c #636E74",
";. c #646E75",
":. c #666F75",
">. c #687176",
",. c #6A7277",
"<. c #6B7277",
"1. c #6F7174",
"2. c #6E7579",
"3. c #71777B",
"4. c #73787B",
"5. c #75797B",
"6. c #76787A",
"7. c #777B7B",
"8. c #787B7D",
"9. c #7D7E7D",
"0. c #7C7E7E",
"q. c #7C7E7F",
"w. c #7C7F7F",
"e. c #881F22",
"r. c #8F1F22",
"t. c #A31F22",
"y. c #AC2022",
"u. c #B32124",
"i. c #B32125",
"p. c #B32225",
"a. c #B12126",
"s. c #B22026",
"d. c #B32126",
"f. c #B22127",
"g. c #B32127",
"h. c #B32226",
"j. c #B32227",
"k. c #B42226",
"l. c #BD761E",
"z. c #885337",
"x. c #8B5537",
"c. c #965633",
"v. c #905535",
"b. c #905635",
"n. c #955634",
"m. c #A95B2E",
"M. c #AF5B2D",
"N. c #B25C2B",
"B. c #B65D2B",
"V. c #8C652E",
"C. c #956829",
"Z. c #97692C",
"A. c #846432",
"S. c #896532",
"D. c #A76E25",
"F. c #B37421",
"G. c #C0781D",
"H. c #C97C19",
"J. c #D17F17",
"K. c #C86127",
"L. c #DA6521",
"P. c #D86522",
"I. c #DD6521",
"U. c #DE6520",
"Y. c #DD6721",
"T. c #DE6620",
"R. c #DE6621",
"E. c #DD6622",
"W. c #DD6722",
"Q. c #DE6722",
"!. c #894848",
"~. c #884E4E",
"^. c #89504D",
"/. c #834F51",
"(. c #875957",
"). c #837473",
"_. c #817E7F",
"`. c #827E7F",
"'. c #DC8314",
"]. c #DC8315",
"[. c #DD8315",
"{. c #DB8415",
"}. c #DC8415",
"|. c #DD8416",
" X c #7F7F81",
".X c #7F8080",
"XX c #808080",
"oX c #818081",
"OX c #828080",
"+X c #828281",
"@X c #838281",
"#X c #828381",
"$X c #838381",
"%X c gray51",
"&X c #838282",
"*X c #828382",
"=X c #838382",
"-X c #828283",
";X c #838283",
":X c #838383",
">X c #848383",
",X c #848483",
"<X c #848484",
"1X c None",
/* pixels */
"1X1X1X1X1X1X1X1X1X1X1X1X1X1X1X1X1X1X1X1X1X1X1X1X1X1X1X1X1X1X1X1X",
"1X1X1X1X1X1X1X1X1X1X1X1X1X1X1XA.S.1X1X1X1X1X1X1X1X1X1X1X1X1X1X1X",
"1X1X1X1X1X1X1X1X1X1X1X1X1X1Xl.{.{.J.1X1X1X1X1X1X1X1X1X1X1X1X1X1X",
"1X1X1X1X1X1X1X1X1X1X1X1X1XV.{.}.}.}.D.1X1X1X1X1X1X1X1X1X1X1X1X1X",
"1X1X1X1X1X1X1X1X1X1X1X1X1XZ.}.].}.}.F.1X1X1X1X1X1X1X1X1X1X1X1X1X",
"1X1X1X1X1X1X1X$.<.@.1X1X1XH '.|.[.[.J 1X1X1X .,.-.Q 1X1X1X1X1X1X",
"1X1X1X1X1X1X2.$X@X&X+.i 1 1XP G.H.C.1X1X6 R %X%X#Xq.1X1X1X1X1X1X",
"1X1X1X1X1X1X@X%X%X%X/.1X1X1X1X1X1X1X1X1X1XY `.%X-X=X[ 1X1X1X1X1X",
"1X1X1X1X1X1XXX*X%X^.%.1X1X1X1X1X1X1X1X1X1Xo.!._.%X>X) 1X1X1X1X1X",
"1X1X1X1X1X1X{ +X(.&.W 1X1X1X1X1X1X1X1X1X1X1X1.~.*X=.1X1X1X1X1X1X",
"1X1X1X1X1X1X1X! b 1X1X1X1X1X1X1X1X1X1X1X1X1X1XU ( 8 1X1X1X1X1X1X",
"1X1X1X1X1X1X1Xg 1X1X1X1X1X1X1X1X1X1X1X1X1X1X1X1X1X1X1X1X1X1X1X1X",
"1X1X1X1Xh j 1X9 1X1X1X1X1X1X1X1X1X1X1X1X1X1X1X1X1X1X1Xe r 1X1X1X",
"1X1Xk u.p.s.l 7 1X1X1X1X1X1X1X1X1X1 1X1X1X1X1X1X1Xw S F F N 1X1X",
"1X1Xt.i.h.a.p.1X1X* % 1X. ; 3 @ & p 1X  : * - 1X1XV F F G G 1X1X",
"1X1Xy.h.j.f.d.1X1X; : ; & < O & O y 1XX > + & 1X1XZ F F D F t 1X",
"1X1Xx k.j.g.r.1X1X; 1XO O 1XO 1X# o O $ = % & 1X1XM G G F A 1X1X",
"1X1X1Xz e.c q 1X1X2 1X1X1X1X, 1X1X1X1X1X1X1X1X1X1X4 m C B 1X1X1X",
"1X1X1X1X1X1X1X1 1X1X1X1X1X1X1X1X1X1X1X1X1X1X1X1X1X1X1X1X1X1X1X1X",
"1X1X1X1X1X1X1X1X1X1X1X1X1X1X1X1X1X1X1X1X1X1X1X1X1X1X1X1X1X1X1X1X",
"1X1X1X1X1X1X1XI } s 1X1X1X1X1X1X1X1X1X1X1X1Xa ~ ' 1X1X1X1X1X1X1X",
"1X1X1X1X1X1X| oX&X).n 1X1X1X1X1X1X1X1X1X1Xd *.%X0.T 1X1X1X1X1X1X",
"1X1X1X1X1X1X X%X%X:XOXv 1X1X1X1X1X1X1X1X0 6.%X7.^ 9.E 1X1X1X1X1X",
"1X1X1X1X1X1X,X%X%X%X*X_ 5 1X1X1X1X1X1X1X1XX./ ...X+X] 1X1X1X1X1X",
"1X1X1X1X1X1X3.<X:X%X8.1X1X1Xu v.n.f 1X1X1XO.;X&X+Xw.1X1X1X1X1X1X",
"1X1X1X1X1X1X1X;.5.:.1X1X1X1XK.E.U.P.K 1X1X1X#.4.>.` 1X1X1X1X1X1X",
"1X1X1X1X1X1X1X1X1X1X1X1X1Xb.W.E.I.W.m.1X1X1X1X1X1X1X1X1X1X1X1X1X",
"1X1X1X1X1X1X1X1X1X1X1X1X1Xc.Q.Q.R.Y.N.1X1X1X1X1X1X1X1X1X1X1X1X1X",
"1X1X1X1X1X1X1X1X1X1X1X1X1X1XL.W.Q.T.x.1X1X1X1X1X1X1X1X1X1X1X1X1X",
"1X1X1X1X1X1X1X1X1X1X1X1X1X1XL M.B.z.1X1X1X1X1X1X1X1X1X1X1X1X1X1X",
"1X1X1X1X1X1X1X1X1X1X1X1X1X1X1X1X1X1X1X1X1X1X1X1X1X1X1X1X1X1X1X1X",
"1X1X1X1X1X1X1X1X1X1X1X1X1X1X1X1X1X1X1X1X1X1X1X1X1X1X1X1X1X1X1X1X"
};
